# xmcd
#
# Track frame offsets:
#	150
#	16705
#	36875
#	55620
#	81067
#	94122
#	110502
#	129830
#	149095
#	171287
#	190162
#	226092
#
# Disc length: 3300 seconds
#
# Revision: 1
# Processed by: cddbd v1.5.1PL0 Copyright (c) Steve Scherf et al.
# Submitted via: CDex 1.50Beta5
#
DISCID=910ce20c
DTITLE=RIKUO and THE HooKERS - Rehabilitation
DYEAR=1900
DGENRE=J-POP
TTITLE0=リハビリテーション
TTITLE1=International R&R
TTITLE2=ロックンロールについて
TTITLE3=君が足りない
TTITLE4=人でなくても好きだよ
TTITLE5=もう帰れない
TTITLE6=共犯者
TTITLE7=不死身の男
TTITLE8=雨に濡れたい
TTITLE9=遅れてきた少年
TTITLE10=灰色の世界
TTITLE11=ただの男が歌ってる
EXTD=
EXTT0=
EXTT1=
EXTT2=
EXTT3=
EXTT4=
EXTT5=
EXTT6=
EXTT7=
EXTT8=
EXTT9=
EXTT10=
EXTT11=
PLAYORDER=
